<?xml version="1.0" encoding="utf-8"?>
<!-- Generator: Adobe Illustrator 15.0.0, SVG Export Plug-In . SVG Version: 6.00 Build 0)  -->
<!DOCTYPE svg PUBLIC "-//W3C//DTD SVG 1.1//EN" "http://www.w3.org/Graphics/SVG/1.1/DTD/svg11.dtd">

<svg width="156" height="42" xmlns="http://www.w3.org/2000/svg"><g fill="none" fill-rule="evenodd"><path d="M72.853 39.01v1.92c0 .105-.072.178-.193.178h-.45a.179.179 0 01-.176-.178v-5.314c0-.09.08-.178.177-.178h.2c.08 0 .129.032.161.121l.096.243a1.702 1.702 0 011.165-.445c1.02 0 1.75.883 1.75 1.952 0 1.094-.77 1.96-1.782 1.96-.482 0-.884-.218-.948-.259zm-.016-.786s.361.276.86.276c.602 0 1.084-.519 1.084-1.19 0-.665-.418-1.184-1.053-1.184-.538 0-.859.413-.891.527v1.571zm3.365-.202c0-.689.53-1.207 1.486-1.207.386 0 .747.113.747.113.016-.591-.129-.858-.594-.858-.426 0-.844.121-1.036.178-.113.024-.185-.049-.21-.154l-.072-.308c-.024-.13.033-.186.12-.219.065-.024.595-.21 1.278-.21 1.189 0 1.301.72 1.301 1.652v1.993a.185.185 0 01-.177.178h-.265c-.072 0-.112-.032-.152-.13l-.089-.25c-.2.194-.57.47-1.14.47-.699 0-1.197-.47-1.197-1.248zm.787-.008c0 .332.193.591.579.591.369 0 .746-.267.859-.453v-.624c-.048-.033-.337-.13-.675-.13-.433 0-.763.227-.763.616zm3.325.988v-3.386c0-.09.08-.178.177-.178h.193c.072 0 .144.056.16.13l.105.34c.064-.098.45-.551 1.124-.551.354 0 .795.097.675.348l-.193.405c-.048.105-.144.13-.225.09a.91.91 0 00-.337-.074c-.546 0-.843.438-.876.503v2.373c0 .162-.104.178-.257.178h-.369a.179.179 0 01-.177-.178zm3.35-.85v-2.026h-.426a.179.179 0 01-.177-.178v-.332a.17.17 0 01.177-.178h.425v-1.045c0-.097.08-.178.177-.178h.458c.096 0 .169.08.169.178v1.045h.98c.096 0 .176.073.176.178v.332c0 .09-.08.178-.177.178h-.98v1.993c0 .316.121.38.298.38.233 0 .458-.096.594-.177.113-.065.185 0 .217.08l.145.381c.04.098 0 .162-.089.22-.152.096-.586.266-1.028.266-.739 0-.94-.453-.94-1.117zm4.497-.851c0-1.053.851-1.944 1.896-1.944 1.036 0 1.887.89 1.887 1.944 0 1.07-.851 1.968-1.887 1.968-1.045 0-1.896-.899-1.896-1.968zm.787 0c0 .689.482 1.199 1.109 1.199.618 0 1.1-.51 1.1-1.199 0-.672-.482-1.175-1.1-1.175-.627 0-1.109.503-1.109 1.175zm4.2 1.701v-2.81h-.481a.179.179 0 01-.177-.18v-.396a.17.17 0 01.177-.178h.482v-.43c0-1.004.474-1.58 1.373-1.58.498 0 .883.22 1.052.373.064.057.072.154.032.211l-.233.34c-.056.09-.144.098-.24.033a.978.978 0 00-.595-.187c-.418 0-.586.34-.586.81v.43h1.052c.096 0 .177.073.177.178v.397c0 .09-.08.178-.177.178h-1.052v2.811a.185.185 0 01-.177.178h-.45a.185.185 0 01-.176-.178z" fill="#141A26" fill-rule="nonzero"/><g fill="#141A26"><path d="M118.244 33.382c0-.425.34-.77.76-.77s.762.345.762.77c0 .425-.342.77-.762.77a.765.765 0 01-.76-.77M105.746 38.171c-.656 0-1.111-.525-1.111-1.276 0-.75.455-1.275 1.111-1.275.66 0 1.12.525 1.12 1.275 0 .763-.45 1.276-1.12 1.276zm0-3.672c-1.387 0-2.394 1.008-2.394 2.396 0 1.389 1.007 2.397 2.394 2.397 1.393 0 2.404-1.008 2.404-2.397 0-1.388-1.011-2.396-2.404-2.396zM116.769 37.015a1.136 1.136 0 00-.182-.257l-.042-.045.044-.043a1.88 1.88 0 00.192-.241l1.224-1.836h-1.486l-.92 1.436c-.052.077-.158.116-.315.116h-.21V33.43c0-.543-.335-.617-.697-.617h-.62v6.409h1.317v-1.923h.124c.15 0 .252.018.3.1l.726 1.383c.203.375.405.44.786.44h1.009l-.752-1.255-.498-.952M123.162 34.488c-.67 0-1.097.3-1.337.554l-.08.082-.028-.111c-.07-.272-.307-.422-.664-.422h-.59l.003 4.629h1.308v-2.133c0-.21.027-.39.082-.555.145-.5.552-.81 1.059-.81.409 0 .568.217.568.778v2.016c0 .48.22.704.695.704h.623l-.002-2.944c0-1.17-.566-1.788-1.637-1.788M119.02 34.593h-.62l.005 3.58v1.048h.661l.024.001.308-.001h.307v-.002h.002l.002-3.923c0-.473-.224-.703-.688-.703M110.884 38.171c-.655 0-1.112-.525-1.112-1.276 0-.75.457-1.275 1.112-1.275.659 0 1.12.525 1.12 1.275 0 .763-.45 1.276-1.12 1.276zm0-3.672c-1.389 0-2.396 1.008-2.396 2.396 0 1.389 1.007 2.397 2.396 2.397 1.391 0 2.404-1.008 2.404-2.397 0-1.388-1.013-2.396-2.404-2.396zM127.557 37.968c-.715 0-.97-.63-.97-1.22 0-.259.066-1.106.901-1.106.416 0 .97.12.97 1.15 0 .972-.49 1.176-.9 1.176zm1.58-3.387c-.249 0-.44.1-.536.282l-.036.07-.06-.052c-.212-.185-.59-.403-1.205-.403-1.223 0-2.046.926-2.046 2.305 0 1.378.851 2.34 2.071 2.34.416 0 .745-.098 1.006-.297l.101-.077v.129c0 .619-.396.96-1.115.96-.35 0-.667-.087-.88-.164-.277-.084-.44-.015-.552.266l-.104.26-.147.378.091.049c.46.246 1.059.393 1.6.393 1.114 0 2.415-.575 2.415-2.194l.004-4.245h-.607zM100.875 38.118H99.81v-1.285c0-.275.105-.417.338-.45h.727c.518 0 .853.33.853.863 0 .548-.327.872-.853.872zm-1.065-3.464v-.338c0-.295.124-.436.396-.454h.545c.468 0 .747.282.747.754 0 .36-.191.78-.73.78h-.958v-.742zm2.425 1.282l-.193-.11.168-.144c.196-.17.523-.55.523-1.21 0-1.006-.775-1.656-1.973-1.656h-1.524a.67.67 0 00-.644.665v5.717H100.787c1.333 0 2.193-.732 2.193-1.865 0-.61-.278-1.132-.745-1.397zM130.258 38.504c0-.426.34-.77.76-.77s.762.344.762.77c0 .425-.342.77-.762.77a.765.765 0 01-.76-.77M138.923 38.171c-.656 0-1.113-.525-1.113-1.276 0-.75.457-1.275 1.113-1.275.658 0 1.12.525 1.12 1.275 0 .763-.451 1.276-1.12 1.276zm0-3.672c-1.389 0-2.396 1.008-2.396 2.396 0 1.389 1.007 2.397 2.396 2.397 1.391 0 2.404-1.008 2.404-2.397 0-1.388-1.013-2.396-2.404-2.396zM147.17 34.503c-.542 0-1.067.257-1.404.686l-.095.122-.074-.136c-.243-.446-.66-.672-1.24-.672-.608 0-1.015.342-1.204.546l-.125.135-.047-.178c-.07-.256-.296-.398-.639-.398h-.55l-.005 4.61h1.25v-2.034c0-.178.021-.355.066-.54.12-.491.447-1.02.998-.967.34.033.505.297.505.809v2.733h1.258v-2.035c0-.223.02-.39.07-.557.102-.47.444-.95.976-.95.384 0 .527.219.527.809v2.059c0 .466.206.674.667.674h.588l.001-2.943c0-1.176-.513-1.773-1.523-1.773M135.804 37.618c-.004.005-.541.576-1.249.576-.645 0-1.296-.398-1.296-1.289 0-.77.505-1.307 1.228-1.307.235 0 .501.085.543.227l.006.025c.097.323.388.34.446.34l.684.001v-.603c0-.796-1.004-1.085-1.68-1.085-1.444 0-2.492 1.014-2.492 2.411s1.037 2.41 2.466 2.41c1.24 0 1.915-.822 1.921-.83l.036-.045-.542-.908-.07.077"/></g><path d="M0 17.568c0-2.4 1.932-4.346 4.314-4.346 2.383 0 4.315 1.946 4.315 4.346 0 2.401-1.932 4.347-4.315 4.347C1.932 21.915 0 19.97 0 17.568zm30.305 4.347c-2.383 0-4.314-1.946-4.314-4.347 0-2.4 1.931-4.346 4.314-4.346 2.382 0 4.315 1.946 4.315 4.346 0 2.401-1.933 4.347-4.315 4.347zm0-21.732c-9.53 0-17.257 7.784-17.257 17.385 0 9.603 7.726 17.386 17.257 17.386 9.532 0 17.258-7.783 17.258-17.386 0-9.6-7.726-17.385-17.258-17.385z" fill="#DA3743"/><path d="M153.648 16.223c.273 0 .434-.123.434-.346 0-.203-.11-.336-.414-.336h-.283v.682h.263zm-.677-1.027h.767c.424 0 .788.173.788.66a.6.6 0 01-.373.56l.464.845h-.464l-.355-.712h-.413v.712h-.414v-2.065zm2.23 1.057c0-.955-.655-1.637-1.502-1.637-.849 0-1.495.682-1.495 1.637 0 .967.646 1.627 1.495 1.627.847 0 1.503-.66 1.503-1.627zm-3.401 0c0-1.19.858-2.003 1.899-2.003 1.049 0 1.907.813 1.907 2.003 0 1.19-.858 2.004-1.907 2.004-1.041 0-1.9-.814-1.9-2.004zm-12.665 8.133a.477.477 0 00.472-.472v-1.745a.475.475 0 00-.469-.472h-.075c-.212 0-.423-.212-.423-.426v-10.34c0-.236-.235-.472-.469-.472h-1.725c-.234 0-.468.236-.468.472v11.455l.006.298c0 .853.847 1.705 1.693 1.705l1.458-.003zM63.21 13.19c2.347 0 4.328 2.003 4.328 4.378 0 2.396-1.942 4.341-4.328 4.341-2.375 0-4.306-1.945-4.306-4.341 0-2.414 1.931-4.378 4.306-4.378zm0-2.757c-3.883 0-7.043 3.2-7.043 7.135 0 3.98 3.092 7.099 7.043 7.099 3.962 0 7.065-3.119 7.065-7.1 0-3.933-3.17-7.134-7.065-7.134zm56.202 11.126c-.127.365-.894 1.051-1.767 1.051-.916 0-1.427-.558-1.427-1.395 0-.88.617-1.416 1.746-1.416.788 0 1.448.3 1.448.3v1.46zm-1.15-7.317c-1.597 0-3.152.407-3.365.493-.213.064-.405.236-.32.601l.214 1.116c.042.3.234.536.553.429.576-.172 1.875-.365 2.77-.365 1.043 0 1.405.601 1.362 1.867 0 0-.894-.279-1.895-.279-2.492 0-3.92 1.352-3.92 3.111 0 2.125 1.364 3.39 3.323 3.39a4.294 4.294 0 003.089-1.244v.533c0 .258.213.472.469.472h.173a.315.315 0 00.06.004h.725a.475.475 0 00.469-.472v-5.343c0-2.704-.64-4.313-3.707-4.313zm-17.88 0c-1.886 0-2.801 1.019-3.167 1.43v-.744a.475.475 0 00-.469-.472h-1.114a.474.474 0 00-.469.472v8.97a.49.49 0 00.469.472h1.576c.469 0 .618-.108.618-.472v-5.665c.234-.687.852-1.545 2.13-1.545 1.192 0 1.703.794 1.703 2.081v5.129c0 .257.214.472.47.472h1.724a.49.49 0 00.469-.472v-5.129c0-2.403-.81-4.527-3.94-4.527zM76.93 22.16c-1.236 0-2.045-.558-2.045-.558V18.06c.213-.558.895-1.373 2.173-1.373 1.533 0 2.321 1.352 2.321 2.746 0 1.395-.83 2.726-2.45 2.726zm.49-7.918c-2.024 0-3.146 1.39-3.213 1.477v-.79a.475.475 0 00-.469-.473h-1.047a.475.475 0 00-.468.472v13.003a.49.49 0 00.468.473h1.726c.234 0 .468-.237.468-.473v-3.733c.447.172 1.385.408 2.364.408 2.94 0 4.878-2.275 4.878-5.172 0-3.004-2.024-5.192-4.707-5.192zm70.24 3.926c-.042-.966-.809-1.717-1.895-1.717-1.193 0-1.96.73-2.087 1.717h3.982zm-1.83-3.927c2.555 0 4.514 1.91 4.514 4.592 0 .15-.021.493-.042.644a.501.501 0 01-.469.45h-6.304c.021 1.223 1.022 2.296 2.45 2.296.979 0 1.66-.365 2.108-.73.234-.193.49-.214.639 0l.83 1.116c.17.193.192.43-.042.644a5.532 5.532 0 01-3.664 1.352c-2.939 0-4.984-2.36-4.984-5.193 0-2.789 2.045-5.17 4.963-5.17zm-16.67 7.919c-1.278 0-1.96-.816-2.173-1.374v-3.54s.81-.558 2.045-.558c1.619 0 2.45 1.33 2.45 2.725s-.789 2.747-2.322 2.747zm.234-7.918c-.98 0-1.96.236-2.407.429v-3.777a.49.49 0 00-.469-.472h-1.725c-.234 0-.468.236-.468.472v13.004a.49.49 0 00.468.472h.746c.014 0 .028 0 .042-.004h.2a.475.475 0 00.471-.472v-.733l.01-.036s1.13 1.48 3.28 1.48c2.685 0 4.623-2.36 4.623-5.192 0-2.897-1.853-5.171-4.771-5.171zm-15.07-3.82h-10.018a.406.406 0 00-.404.408v1.76c0 .214.17.407.404.407h3.614v10.965a.42.42 0 00.405.408h1.98a.42.42 0 00.406-.408V12.997h3.613a.406.406 0 00.405-.408V10.83a.406.406 0 00-.405-.408zm-23.848 7.746c-.043-.966-.81-1.717-1.896-1.717-1.192 0-1.96.73-2.087 1.717h3.983zm-1.832-3.927c2.556 0 4.515 1.91 4.515 4.592 0 .15-.02.493-.042.644a.502.502 0 01-.469.45h-6.304c.021 1.223 1.022 2.296 2.45 2.296.98 0 1.66-.365 2.108-.73.234-.193.49-.214.639 0l.83 1.116c.171.193.192.43-.042.644a5.532 5.532 0 01-3.664 1.352c-2.939 0-4.983-2.36-4.983-5.193 0-2.789 2.044-5.17 4.962-5.17z" fill="#141A26"/></g></svg>